<svg xmlns="http://www.w3.org/2000/svg" version="1.0" width="589" height="768" viewBox="-1.111 -1.111 39.27 51.204"><path d="M34.505 48.981c1.404 0 2.542-1.096 2.542-2.448V2.45c0-1.354-1.138-2.45-2.542-2.45H2.542C1.14 0 0 1.096 0 2.45v44.083c0 1.352 1.139 2.448 2.542 2.448h31.963" fill="none"/><path d="M15.66 2.264v13.844H1.91v6.03h13.75v13.876h5.969V22.139h13.719v-6.031h-13.72V2.264H15.66zm11.156 1.844c-.329.2-.898.51-1.812 1.375-.994.94-1.695 2.652-2.688 3.718v3.063c1.261-.89 2.529-2.148 3.313-3.438.757-1.201 1.725-2.322 2.937-3 .195-.11.328-.208.438-.281-.69-.539-1.42-1.01-2.188-1.437zm-16.687.156c-.724.422-1.412.915-2.063 1.437.865 1.18 2.129 2.5 3.407 3.157 1.317.768 2.466 1.93 3.468 3V8.326a8.859 8.859 0 00-.625-.687c-1.201-1.158-3.033-2.033-4.187-3.375zM29.69 6.108c-.531.388-1.058.73-1.531 1.187-1.125.94-1.751 2.243-2.594 3.438-.806 1.143-2.059 2.093-3.25 2.812v1.844h2.094a15.152 15.152 0 002.75-2.469c1.19-1.661 2.09-3.679 3.844-4.75.177-.109.315-.201.437-.281a17.223 17.223 0 00-1.75-1.781zm-22.31.156c-.619.551-1.185 1.175-1.719 1.812.11.192.309.489.625.969.856 1.303 2.13 2.005 3.406 2.813.368.197.717.487 1.063.75.991.79 1.809 1.846 2.531 2.78h1.656v-2a24.575 24.575 0 00-1.406-1.687c-1.061-1.18-2.452-1.937-3.75-2.812-.91-.688-1.76-1.736-2.406-2.625zM32.098 8.67a8.897 8.897 0 00-.47.281c-1.514.961-2.432 2.602-3.405 4-.565.857-1.443 1.715-2.25 2.438h3.53c.83-.745 1.556-1.816 2-2.531.477-.766 1.288-1.47 1.938-2.125a17.204 17.204 0 00-1.343-2.063zm-27 .094a16.808 16.808 0 00-1.375 2.156c.775 1.315 1.763 2.508 3.156 3.219 1.061.542 1.625 1.03 1.844 1.25h3.187c-.366-.665-1.005-1.431-1.5-1.969-1.515-1.376-3.592-1.83-4.719-3.687a40.906 40.906 0 00-.593-.97zm2.5 14.125c-.852.831-1.36 1.635-1.938 2.594-.427.742-1.155 1.466-1.906 1.968.417.759.916 1.474 1.437 2.157l.875-.625c.368-.263.772-.588 1.032-.938.692-.742 1.176-1.724 1.78-2.531.672-.94 1.47-1.675 2.313-2.375.054-.044.207-.158.313-.25H7.598zm5.25 0c-1.38.984-2.597 2.187-3.532 3.594-.909 1.595-1.912 2.898-3.406 3.968l-.031.032c.541.62 1.127 1.183 1.75 1.718.136-.09.285-.202.469-.343a13.073 13.073 0 003.375-3.813c.853-1.345 2.176-2.525 3.468-3.469V22.89h-2.093zm9.468 0v1.719c.846 1.252 2.097 2.74 3.313 3.468 1.592.979 3.154 2.284 4.406 3.782a17.123 17.123 0 001.656-1.75c-.084-.137-.157-.3-.281-.5-1.066-1.72-3.025-2.73-4.562-3.844-1.105-.8-1.88-1.804-2.594-2.875h-1.938zm3.157 0l.28.469c1.06 1.463 2.626 2.274 4.032 3.28 1.008.67 1.901 1.687 2.531 2.688.516-.705.97-1.467 1.375-2.25-.757-1.005-1.512-1.947-2.593-2.625-.765-.446-1.618-1.026-2.375-1.562h-3.25zM14.94 25.826c-1.202.864-2.387 2.024-3.093 3.282-.714 1.333-1.805 2.47-3.125 3.343-.187.124-.327.238-.438.313a16.83 16.83 0 002.219 1.437c.169-.127.404-.303.719-.531 1.66-1.193 2.562-2.965 3.718-4.594v-3.25zm7.375.344v3.625c.101.119.262.302.532.625 1.1 1.316 2.802 1.795 3.906 3.063.18.206.332.352.437.468a16.896 16.896 0 002.032-1.406c-.843-1.3-2.002-2.314-3.313-3.031-1.32-.719-2.69-2.116-3.594-3.344zM18.38 38.795v1.094h.844v-1.094h-.844zm2.25.656v1.75h-.875v.625h.875v4.594c0 .936.402 1.25 1.125 1.25.354 0 .672-.12.844-.156v-.594a2.576 2.576 0 01-.594.094c-.611 0-.625-.255-.625-.875v-4.313h1.187v-.625H21.38v-1.75h-.75zM5.566 41.045c-1.896 0-2.906 1.563-2.906 3.313 0 1.858.888 3.312 2.906 3.312 1.59 0 2.494-.947 2.75-2.344h-.781c-.171 1.044-.88 1.688-1.969 1.688-1.517 0-2.125-1.333-2.125-2.656 0-1.313.62-2.657 2.125-2.657.978 0 1.649.533 1.907 1.469h.75c-.22-1.457-1.202-2.125-2.657-2.125zm5.875 0c-1.382 0-2.483.58-2.593 2.063h.75c.135-1.094.828-1.407 1.843-1.407 1.139 0 1.563.509 1.563 1.25 0 .219-.006.546-.25.657-.245.108-.699.195-.969.218l-1.031.125c-1.48.195-2.188.85-2.188 1.907 0 1.215.98 1.812 2.094 1.812.918 0 1.763-.351 2.375-1.031.011.436.105.834.594.906.11.025.19.063.312.063.208 0 .484-.09.594-.125v-.594c-.625.219-.781.102-.781-.469v-3.437c0-1.458-1.028-1.938-2.313-1.938zm6.375 0c-1.064 0-1.658.336-2.062 1.344h-.031V41.2h-.72v6.282h.72V44.42c0-1.41.442-2.63 2.093-2.594v-.781zm7.688 0c-1.383 0-2.484.58-2.594 2.063h.719c.134-1.094.86-1.407 1.875-1.407 1.137 0 1.562.509 1.562 1.25 0 .219-.036.546-.281.657-.244.108-.699.195-.969.218l-1 .125c-1.48.195-2.218.85-2.218 1.907 0 1.215 1.01 1.812 2.125 1.812.917 0 1.73-.351 2.343-1.031.013.436.105.834.594.906.111.025.221.063.344.063.207 0 .45-.09.562-.125v-.594c-.625.219-.75.102-.75-.469v-3.437c0-1.458-1.027-1.938-2.312-1.938zm5.406 0c-1.406 0-2.219.736-2.219 1.781 0 2.479 4.063 1.209 4.063 3.032 0 .607-.498 1.156-1.563 1.156-1.101 0-1.673-.388-1.906-1.469h-.75c.061 1.19.915 2.125 2.406 2.125 1.493 0 2.594-.641 2.594-1.844 0-2.417-4.062-1.349-4.062-3.062 0-.644.507-1.063 1.437-1.063.918 0 1.585.34 1.719 1.313h.75c-.184-1.423-1.099-1.969-2.469-1.969zm-12.531.156v6.282h.75V41.2h-.75zm-5.375 3v.969c0 1.276-1.15 1.844-2.313 1.844-.697 0-1.343-.36-1.343-1.125 0-.851.667-1.259 1.78-1.344.637-.049 1.252-.089 1.876-.344zm14.062 0v.969c0 1.276-1.15 1.844-2.312 1.844-.698 0-1.375-.36-1.375-1.125 0-.851.667-1.259 1.781-1.344.636-.049 1.283-.089 1.906-.344z" fill="#fff"/></svg>